<?xml version="1.0" encoding="utf-8"?>
<!-- Generator: Adobe Illustrator 24.0.1, SVG Export Plug-In . SVG Version: 6.00 Build 0)  -->
<svg version="1.1" id="Шар_1" xmlns="http://www.w3.org/2000/svg" xmlns:xlink="http://www.w3.org/1999/xlink" x="0px" y="0px"
	 viewBox="0 0 24 16" style="enable-background:new 0 0 24 16;" xml:space="preserve">
<path d="M0,14.7C0,15.4,0.6,16,1.3,16h9.3c0.7,0,1.3-0.6,1.3-1.3c0-0.7-0.6-1.3-1.3-1.3H1.3C0.6,13.3,0,13.9,0,14.7z M0,8
	c0,0.7,0.6,1.3,1.3,1.3h21.3C23.4,9.3,24,8.7,24,8s-0.6-1.3-1.3-1.3H1.3C0.6,6.7,0,7.3,0,8z M1.3,0C0.6,0,0,0.6,0,1.3
	c0,0.7,0.6,1.3,1.3,1.3H16c0.7,0,1.3-0.6,1.3-1.3C17.3,0.6,16.7,0,16,0H1.3z"/>
</svg>
